<svg width="29" height="29" viewBox="0 0 29 29" fill="none" xmlns="http://www.w3.org/2000/svg">
<path d="M21.5822 13.5112C21.8001 13.8381 22.0181 14.165 22.127 14.7098H18.6403C18.6403 14.6008 18.6403 14.3829 18.7492 14.165C18.8582 13.9471 18.8582 13.8381 19.0761 13.6202C19.1851 13.4023 19.403 13.2933 19.6209 13.1843C19.8388 13.0754 20.1657 12.9664 20.4926 12.9664C20.9284 13.0754 21.3643 13.1843 21.5822 13.5112ZM11.5578 12.7485C11.7757 12.5306 11.9936 12.2037 11.9936 11.7678C11.9936 11.5499 11.9936 11.332 11.8846 11.1141C11.7757 11.0051 11.6667 10.7872 11.5578 10.7872C11.4488 10.6782 11.2309 10.6782 11.0129 10.5693H8.17995V13.0754H10.5771C10.904 13.0754 11.2309 12.9664 11.5578 12.7485ZM10.6861 14.6008H8.17995V17.5428H10.6861C10.904 17.5428 11.1219 17.5428 11.3398 17.4338C11.5578 17.4338 11.7757 17.3249 11.8846 17.2159C11.9936 17.107 12.2115 16.998 12.3205 16.7801C12.4294 16.5622 12.4294 16.3442 12.4294 16.1263C12.4294 15.5815 12.3205 15.1457 11.9936 14.9277C11.6667 14.7098 11.2309 14.6008 10.6861 14.6008ZM28.6647 5.33912V22.9909C28.6647 25.9328 26.2676 28.33 23.3256 28.33H5.67383C2.73187 28.33 0.334717 25.9328 0.334717 22.9909V5.33912C0.334717 2.39715 2.73187 0 5.67383 0H23.3256C26.2676 0 28.6647 2.39715 28.6647 5.33912ZM18.2044 10.4603H22.5629V9.37069H18.2044V10.4603ZM14.7176 16.3442C14.7176 15.6905 14.6087 15.1457 14.2818 14.6008C13.9549 14.165 13.5191 13.8381 12.8653 13.6202C13.3011 13.4023 13.737 13.0754 13.9549 12.7485C14.1728 12.4216 14.2818 11.9858 14.2818 11.441C14.2818 10.8962 14.1728 10.5693 14.0639 10.1334C13.8459 9.80654 13.628 9.47965 13.4101 9.37069C13.0832 9.15277 12.7563 9.04381 12.3205 8.93485C11.7757 8.71692 11.3398 8.71692 10.795 8.71692H5.78279V19.3952H11.0129C11.4488 19.3952 11.9936 19.2862 12.4294 19.1772C12.8653 19.0683 13.3011 18.8503 13.628 18.6324C13.9549 18.4145 14.2818 18.0876 14.4997 17.6518C14.6087 17.3249 14.7176 16.889 14.7176 16.3442ZM18.6403 16.0173H24.1973C24.1973 15.3636 24.1973 14.8188 24.0883 14.274C23.9794 13.7292 23.7614 13.1843 23.4346 12.8575C23.1077 12.4216 22.6718 12.0947 22.236 11.8768C21.6912 11.6589 21.1464 11.441 20.4926 11.441C19.9478 11.441 19.403 11.5499 18.8582 11.7678C18.4223 11.9858 17.9865 12.3127 17.5506 12.6395C17.2238 12.9664 16.8969 13.4023 16.7879 13.9471C16.57 14.4919 16.461 15.0367 16.461 15.5815C16.461 16.1263 16.57 16.7801 16.7879 17.2159C17.0058 17.7607 17.2238 18.1966 17.5506 18.5235C17.8775 18.8503 18.3134 19.1772 18.7492 19.3952C19.294 19.6131 19.8388 19.722 20.3836 19.722C21.2553 19.722 22.0181 19.5041 22.6718 19.0683C23.3256 18.6324 23.7614 17.9787 24.0883 17.107H22.236C22.127 17.3249 22.0181 17.5428 21.6912 17.7607C21.3643 17.9787 21.0374 18.0876 20.6016 18.0876C20.0568 18.0876 19.5119 17.9787 19.1851 17.6518C18.8582 17.2159 18.6403 16.6711 18.6403 16.0173Z" fill="#012B3C"/>
</svg>
