<svg width="73" height="72" viewBox="0 0 73 72" fill="none" xmlns="http://www.w3.org/2000/svg">
<path d="M36.5 27C34.1131 27 31.8239 27.9482 30.136 29.636C28.4482 31.3239 27.5 33.6131 27.5 36C27.5 38.3869 28.4482 40.6761 30.136 42.364C31.8239 44.0518 34.1131 45 36.5 45C38.8869 45 41.1761 44.0518 42.864 42.364C44.5518 40.6761 45.5 38.3869 45.5 36C45.5 33.6131 44.5518 31.3239 42.864 29.636C41.1761 27.9482 38.8869 27 36.5 27ZM36.5 51C32.5218 51 28.7064 49.4196 25.8934 46.6066C23.0804 43.7936 21.5 39.9782 21.5 36C21.5 32.0218 23.0804 28.2064 25.8934 25.3934C28.7064 22.5804 32.5218 21 36.5 21C40.4782 21 44.2936 22.5804 47.1066 25.3934C49.9196 28.2064 51.5 32.0218 51.5 36C51.5 39.9782 49.9196 43.7936 47.1066 46.6066C44.2936 49.4196 40.4782 51 36.5 51ZM36.5 13.5C21.5 13.5 8.69 22.83 3.5 36C8.69 49.17 21.5 58.5 36.5 58.5C51.5 58.5 64.31 49.17 69.5 36C64.31 22.83 51.5 13.5 36.5 13.5Z" fill="white"/>
</svg>
