<svg width="29" height="29" viewBox="0 0 29 29" fill="none" xmlns="http://www.w3.org/2000/svg">
<path d="M15.6238 0C17.2176 0.00425 18.0265 0.01275 18.7249 0.0325833L18.9997 0.0425C19.3171 0.0538333 19.6301 0.0679999 20.0084 0.0849999C21.5157 0.155833 22.5442 0.393833 23.4466 0.74375C24.3817 1.10358 25.1693 1.59092 25.957 2.37717C26.6774 3.08535 27.2348 3.942 27.5904 4.8875C27.9403 5.78992 28.1783 6.81842 28.2492 8.32717C28.2662 8.704 28.2803 9.01708 28.2917 9.33583L28.3002 9.61067C28.3214 10.3077 28.3299 11.1166 28.3327 12.7103L28.3342 13.7672V15.623C28.3376 16.6563 28.3268 17.6896 28.3016 18.7227L28.2931 18.9975C28.2817 19.3163 28.2676 19.6293 28.2506 20.0062C28.1797 21.5149 27.9389 22.542 27.5904 23.4458C27.2358 24.3918 26.6782 25.2487 25.957 25.9562C25.2486 26.6763 24.392 27.2337 23.4466 27.5896C22.5442 27.9395 21.5157 28.1775 20.0084 28.2483C19.6722 28.2642 19.336 28.2783 18.9997 28.2908L18.7249 28.2993C18.0265 28.3192 17.2176 28.3291 15.6238 28.3319L14.567 28.3333H12.7126C11.6788 28.3369 10.645 28.326 9.61148 28.3008L9.33665 28.2923C9.00035 28.2795 8.66412 28.2649 8.32798 28.2483C6.82065 28.1775 5.79215 27.9395 4.88832 27.5896C3.94293 27.2345 3.08662 26.677 2.3794 25.9562C1.65838 25.2482 1.10047 24.3915 0.744568 23.4458C0.394651 22.5434 0.156651 21.5149 0.0858173 20.0062C0.070034 19.67 0.0558672 19.3338 0.0433174 18.9975L0.0362342 18.7227C0.010128 17.6897 -0.00167887 16.6563 0.000817418 15.623V12.7103C-0.00313645 11.677 0.00725354 10.6437 0.0319842 9.61067L0.0419008 9.33583C0.0532341 9.01708 0.0674008 8.704 0.0844008 8.32717C0.155234 6.81842 0.393234 5.79133 0.743151 4.8875C1.0989 3.94103 1.65792 3.08412 2.38082 2.37717C3.08786 1.65675 3.9436 1.09932 4.88832 0.74375C5.79215 0.393833 6.81923 0.155833 8.32798 0.0849999C8.70482 0.0679999 9.01932 0.0538333 9.33665 0.0425L9.61148 0.0339999C10.6445 0.00882967 11.6778 -0.00203249 12.7112 0.00141656L15.6238 0ZM14.1675 7.08333C12.2889 7.08333 10.4872 7.82961 9.15881 9.15799C7.83043 10.4864 7.08415 12.2881 7.08415 14.1667C7.08415 16.0453 7.83043 17.847 9.15881 19.1753C10.4872 20.5037 12.2889 21.25 14.1675 21.25C16.0461 21.25 17.8478 20.5037 19.1762 19.1753C20.5045 17.847 21.2508 16.0453 21.2508 14.1667C21.2508 12.2881 20.5045 10.4864 19.1762 9.15799C17.8478 7.82961 16.0461 7.08333 14.1675 7.08333ZM14.1675 9.91667C14.7256 9.91657 15.2783 10.0264 15.7939 10.2399C16.3096 10.4534 16.7782 10.7664 17.1729 11.161C17.5676 11.5555 17.8807 12.024 18.0944 12.5396C18.3081 13.0552 18.4181 13.6078 18.4182 14.166C18.4183 14.7241 18.3084 15.2767 18.095 15.7924C17.8815 16.3081 17.5685 16.7767 17.1739 17.1714C16.7793 17.5661 16.3109 17.8792 15.7953 18.0929C15.2797 18.3066 14.727 18.4166 14.1689 18.4167C13.0417 18.4167 11.9607 17.9689 11.1637 17.1719C10.3667 16.3748 9.9189 15.2938 9.9189 14.1667C9.9189 13.0395 10.3667 11.9585 11.1637 11.1615C11.9607 10.3644 13.0417 9.91667 14.1689 9.91667M21.6064 4.95833C21.1367 4.95833 20.6863 5.1449 20.3542 5.477C20.0221 5.80909 19.8356 6.25951 19.8356 6.72917C19.8356 7.19882 20.0221 7.64924 20.3542 7.98134C20.6863 8.31343 21.1367 8.5 21.6064 8.5C22.0761 8.5 22.5265 8.31343 22.8586 7.98134C23.1907 7.64924 23.3772 7.19882 23.3772 6.72917C23.3772 6.25951 23.1907 5.80909 22.8586 5.477C22.5265 5.1449 22.0761 4.95833 21.6064 4.95833Z" fill="#012B3C"/>
</svg>
